<svg width="700" height="215" viewBox="0 0 700 215" fill="none" xmlns="http://www.w3.org/2000/svg">
<path fill-rule="evenodd" clip-rule="evenodd" d="M170 136.672C170.234 135.155 171.432 134 173.096 134C173.871 134 174.751 134.254 175.678 134.833C227.096 167.129 290.706 186.585 356.394 186.585C400.724 186.585 449.428 176.649 494.251 156.124C501.006 153.041 506.666 160.926 500.057 166.223C460.073 198.06 402.105 215 352.19 215C282.24 215 219.251 187.08 171.566 140.614C170.631 139.704 170.139 138.706 170 137.769V136.672Z" fill="white"/>
<path fill-rule="evenodd" clip-rule="evenodd" d="M466.859 141.588C478.679 132.671 494.396 129.696 507.428 129.696C519.617 129.696 529.462 132.303 531.558 135.09C535.963 140.906 530.424 181.227 508.969 200.458C505.686 203.436 502.562 201.832 504.01 197.946C508.834 185.048 519.631 156.089 514.514 149.068C509.404 142.031 480.713 145.715 467.847 147.375C465.854 147.628 464.72 146.813 464.554 145.599V144.944C464.689 143.891 465.436 142.663 466.859 141.588ZM666.487 29.3715C676.996 29.3715 685.208 32.5537 691.125 38.9181C697.041 45.2809 700 54.1147 700 65.4194C700 76.8114 697.041 85.6896 691.125 92.0539C685.208 98.4183 676.996 101.6 666.487 101.6C655.979 101.6 647.765 98.4183 641.849 92.0539C635.933 85.6896 632.974 76.8114 632.974 65.4194C632.974 54.1147 635.933 45.2809 641.849 38.9181C647.765 32.5537 655.979 29.3715 666.487 29.3715ZM666.487 44.3242C657.215 44.3242 652.579 51.3555 652.579 65.4194C652.579 79.5707 657.215 86.6463 666.487 86.6463C675.759 86.6463 680.396 79.5707 680.396 65.4194C680.396 51.3555 675.759 44.3242 666.487 44.3242ZM596.669 30.003C604.709 30.003 611.003 31.9667 615.537 35.8941C620.072 39.823 622.344 45.0636 622.344 51.6069C622.344 58.1605 619.898 63.1141 615.025 66.4693C610.14 69.8334 602.941 71.5117 593.435 71.5117C588.507 71.5117 584.223 71.037 580.597 70.0774C581.111 75.9242 582.869 80.1178 585.852 82.6449C588.834 85.1705 593.347 86.4393 599.4 86.4393C601.814 86.4393 604.175 86.2855 606.469 85.9764C608.753 85.6777 611.933 84.9946 615.997 83.9565C616.247 83.8693 616.51 83.8027 616.773 83.7584C617.035 83.714 617.242 83.6918 617.417 83.6918C618.893 83.6918 619.624 84.6959 619.624 86.7039V92.7297C619.624 94.1197 619.427 95.1015 619.045 95.6753C618.651 96.2372 617.898 96.7458 616.773 97.1761C610.457 99.6145 603.759 100.839 596.669 100.839C585.951 100.839 577.722 97.8815 571.976 91.9341C566.229 85.9986 563.356 77.4916 563.356 66.4028C563.356 55.0596 566.294 46.1563 572.172 39.7003C578.051 33.2354 586.213 30.003 596.669 30.003ZM595.248 43.2315C586.944 43.2315 582.148 48.3848 580.859 58.6795C584.311 59.3848 588.158 59.7279 592.397 59.7279C596.799 59.7279 600.001 59.0536 601.989 57.6976C603.978 56.3505 604.973 54.2759 604.973 51.4856C604.973 45.9789 601.727 43.2315 595.248 43.2315ZM546.162 0.801459C547.398 0.801459 548.259 1.04545 548.745 1.5349C549.23 2.02435 549.473 2.89235 549.473 4.1389V96.2593C549.473 97.4172 549.23 98.2615 548.745 98.7968C548.259 99.3306 547.398 99.5968 546.162 99.5968H535.565C534.505 99.5968 533.688 99.375 533.114 98.9299C532.541 98.4848 532.12 97.7277 531.856 96.6601L531.061 93.5888C525.585 98.5735 519.096 101.065 511.589 101.065C505.85 101.065 500.86 99.5746 496.621 96.5935C492.382 93.611 489.137 89.4736 486.886 84.1768C484.633 78.8816 483.508 72.7627 483.508 65.8202C483.508 54.7831 486.112 45.9493 491.322 39.3188C496.532 32.6868 503.421 29.3715 511.987 29.3715C518.963 29.3715 525.013 31.3737 530.134 35.3795V4.1389C530.134 2.89235 530.399 2.02435 530.929 1.5349C531.459 1.04545 532.298 0.801459 533.445 0.801459H546.162ZM517.02 44.0581C512.339 44.0581 508.852 45.8162 506.556 49.3311C504.26 52.8475 503.112 58.1649 503.112 65.2849C503.112 72.4063 504.325 77.7016 506.754 81.1736C509.183 84.6441 512.913 86.3801 517.948 86.3801C522.187 86.3801 526.249 85.1336 530.134 82.6419V47.3955C526.337 45.17 521.965 44.0581 517.02 44.0581ZM454.765 99.5968C453.617 99.5968 452.777 99.3306 452.248 98.7968C451.718 98.2615 451.453 97.4172 451.453 96.2593V34.7126C451.453 33.4661 451.718 32.5981 452.248 32.1086C452.777 31.6192 453.617 31.3737 454.765 31.3737H467.482C468.718 31.3737 469.579 31.6192 470.065 32.1086C470.55 32.5981 470.793 33.4661 470.793 34.7126V96.2593C470.793 97.4172 470.55 98.2615 470.065 98.7968C469.579 99.3306 468.718 99.5968 467.482 99.5968H454.765ZM461.123 20.8276C457.767 20.8276 455.073 19.893 453.042 18.024C451.012 16.1549 449.996 13.6174 449.996 10.413C449.996 7.21017 451.012 4.67271 453.042 2.80363C455.073 0.934542 457.767 0 461.123 0C464.478 0 467.172 0.934542 469.203 2.80363C471.234 4.67271 472.249 7.21017 472.249 10.413C472.249 13.6174 471.234 16.1549 469.203 18.024C467.172 19.893 464.478 20.8276 461.123 20.8276ZM402.217 99.5968C401.333 99.5968 400.605 99.4859 400.031 99.2641C399.459 99.0428 398.956 98.6738 398.574 98.195C398.176 97.7055 397.801 97.0164 397.448 96.1263L374.796 36.7148C374.564 36.0958 374.344 35.4727 374.135 34.8457C373.969 34.3734 373.88 33.8777 373.87 33.3774C373.87 32.0421 374.753 31.3737 376.519 31.3737H389.766C391.178 31.3737 392.215 31.6414 392.878 32.1752C393.54 32.709 394.048 33.5992 394.401 34.8457L408.044 82.1081L421.954 34.8457C422.306 33.5992 422.814 32.709 423.477 32.1752C424.139 31.6414 425.176 31.3737 426.59 31.3737H439.438C441.205 31.3737 442.087 32.0421 442.087 33.3774C442.087 33.8225 442 34.3119 441.823 34.8457C441.646 35.3795 441.426 36.0021 441.161 36.7148L418.509 96.1263C418.156 97.0164 417.781 97.7055 417.383 98.195C417.016 98.6615 416.538 99.0291 415.993 99.2641C415.463 99.4859 414.713 99.5968 413.74 99.5968H402.217ZM317.69 29.3804C325.941 29.3804 332.398 31.3841 337.05 35.3914C341.701 39.3987 344.033 44.7457 344.033 51.4205C344.033 58.1058 341.521 63.16 336.523 66.5817C331.511 70.0153 324.125 71.7261 314.372 71.7261C309.317 71.7261 304.922 71.2411 301.201 70.2622C301.728 76.2288 303.532 80.5052 306.593 83.0826C309.653 85.6615 314.283 86.9553 320.492 86.9553C322.97 86.9553 325.392 86.7971 327.745 86.4821C330.088 86.179 333.349 85.4811 337.52 84.4223C337.779 84.3328 338.045 84.2651 338.315 84.2197C338.585 84.1754 338.798 84.1517 338.977 84.1517C340.49 84.1517 341.242 85.1764 341.242 87.2259V93.3714C341.242 94.7895 341.039 95.7906 340.647 96.3762C340.244 96.9499 339.47 97.4689 338.315 97.9066C331.837 100.395 324.965 101.645 317.69 101.645C306.694 101.645 298.252 98.6282 292.357 92.5611C286.46 86.5043 283.513 77.8273 283.513 66.5137C283.513 54.9428 286.528 45.8591 292.558 39.2744C298.588 32.6779 306.963 29.3804 317.69 29.3804ZM316.232 42.8766C307.714 42.8766 302.792 48.1334 301.47 58.6351C305.012 59.3553 308.959 59.7042 313.307 59.7042C317.825 59.7042 321.11 59.0181 323.149 57.6326C325.189 56.2603 326.209 54.1443 326.209 51.2963C326.209 45.6787 322.88 42.8766 316.232 42.8766ZM186.406 37.9347C191.102 34.8161 195.34 32.6099 199.106 31.3264C202.853 30.0343 206.789 29.3761 210.753 29.3789C218.735 29.3789 224.361 32.2388 227.645 37.9347C232.163 34.9063 236.423 32.7223 240.414 31.3944C244.398 30.0541 248.574 29.3733 252.778 29.3789C258.987 29.3789 263.796 31.1238 267.216 34.5914C270.623 38.0693 272.339 42.9209 272.339 49.1566V96.3081C272.339 97.4674 272.091 98.3118 271.61 98.8412C271.116 99.3809 270.253 99.6397 269.01 99.6397H256.241C255.087 99.6397 254.246 99.3809 253.719 98.8412C253.182 98.3118 252.912 97.4674 252.912 96.3081V53.4331C252.912 47.3778 250.211 44.3494 244.796 44.3494C240.01 44.3494 235.178 45.4983 230.302 47.8169V96.3081C230.302 97.4674 230.055 98.3118 229.574 98.8412C229.081 99.3809 228.217 99.6397 226.973 99.6397H214.205C213.051 99.6397 212.21 99.3809 211.683 98.8412C211.146 98.3118 210.888 97.4674 210.888 96.3081V53.4331C210.888 47.3778 208.175 44.3494 202.772 44.3494C197.806 44.3494 192.93 45.5427 188.132 47.9515V96.3081C188.132 97.4674 187.886 98.3118 187.403 98.8412C186.91 99.3809 186.047 99.6397 184.814 99.6397H172.034C170.892 99.6397 170.039 99.3809 169.514 98.8412C168.987 98.3118 168.717 97.4674 168.717 96.3081V34.7259C168.717 33.4764 168.987 32.6099 169.514 32.1264C170.039 31.631 170.892 31.3944 172.034 31.3944H181.619C183.66 31.3944 184.893 32.3733 185.341 34.3326L186.406 37.9347ZM132.825 34.7289C132.825 33.4794 133.095 32.6129 133.622 32.1279C134.161 31.6325 135.001 31.3855 136.156 31.3855H148.923C150.167 31.3855 151.03 31.6325 151.513 32.1279C152.006 32.6129 152.253 33.4794 152.253 34.7289V96.2993C152.253 97.4586 152.006 98.3133 151.513 98.8427C151.03 99.372 150.167 99.6426 148.923 99.6426H136.156C135.001 99.6426 134.161 99.372 133.622 98.8427C133.095 98.3133 132.825 97.4586 132.825 96.2993V34.7289ZM142.534 20.8379C139.159 20.8379 136.458 19.9034 134.418 18.0358C132.378 16.1563 131.369 13.6233 131.369 10.4145C131.369 7.20722 132.378 4.67419 134.418 2.80658C136.458 0.9375 139.159 0.00295741 142.534 0.00295741C145.907 0.00295741 148.609 0.9375 150.65 2.80658C152.69 4.67419 153.71 7.20722 153.71 10.4145C153.71 13.6233 152.69 16.1563 150.65 18.0358C148.609 19.9034 145.907 20.8379 142.534 20.8379ZM98.0275 41.5398C101.57 37.6227 104.921 34.8428 108.071 33.1881C111.166 31.5574 114.616 30.7109 118.115 30.7231H119.976C121.219 30.7231 122.106 30.9715 122.633 31.455C123.17 31.9504 123.428 32.8169 123.428 34.0546V45.278C123.428 46.4373 123.192 47.2816 122.699 47.8214C122.217 48.3507 121.354 48.6199 120.111 48.6199C119.483 48.6199 118.687 48.5755 117.711 48.4853C116.473 48.3853 115.232 48.3404 113.99 48.3507C111.949 48.3507 109.472 48.6435 106.536 49.2173C103.609 49.8028 101.132 50.5333 99.0918 51.4235V96.3008C99.0918 97.4601 98.8461 98.3044 98.3635 98.8456C97.8706 99.3735 97.0077 99.6441 95.7628 99.6441H82.9947C81.8401 99.6441 80.9993 99.3735 80.4724 98.8456C79.9351 98.3044 79.6657 97.4601 79.6657 96.3008V34.7304C79.6657 33.4809 79.9351 32.6143 80.4724 32.119C80.9993 31.6354 81.8401 31.387 82.9947 31.387H92.5686C94.6083 31.387 95.8531 32.3674 96.3016 34.3252L98.0275 41.5398ZM38.719 29.3893C47.316 29.3893 54.1204 32.5522 59.1309 38.8678C64.1414 45.1937 66.6533 53.7362 66.6533 64.5204C66.6533 71.9036 65.4084 78.364 62.9306 83.8796C60.4424 89.407 57.069 93.6613 52.8194 96.6335C48.5608 99.6278 43.6836 101.112 38.1802 101.112C34.5478 101.112 31.0841 100.539 27.8114 99.3794C24.5269 98.2201 21.7352 96.6216 19.4261 94.5736V123.817C19.4261 125.066 19.1804 125.933 18.6978 126.428C18.2049 126.911 17.342 127.16 16.0971 127.16H3.33044C2.17589 127.16 1.33514 126.911 0.808188 126.428C0.269396 125.933 0 125.066 0 123.817V34.7245C0 33.4868 0.269396 32.6203 0.808188 32.1249C1.33514 31.6295 2.17589 31.3929 3.33044 31.3929H12.9132C14.9544 31.3929 16.1874 32.3718 16.6359 34.3311L17.5655 37.7972C20.2225 35.2198 23.4404 33.1718 27.206 31.6517C30.9731 30.1434 34.8172 29.3893 38.719 29.3893ZM32.4637 44.0788C27.8558 44.0788 23.507 45.2824 19.4261 47.6809V82.8105C23.3279 85.2193 27.6767 86.4245 32.4637 86.4245C37.4297 86.4245 41.0844 84.7358 43.4379 81.3481C45.7914 77.9589 46.9681 72.6237 46.9681 65.3189C46.9681 57.9239 45.8136 52.5429 43.5045 49.1552C41.1954 45.7674 37.5186 44.0788 32.4637 44.0788Z" fill="white"/>
</svg>
